<svg width="28" height="25" viewBox="0 0 28 25" fill="none" xmlns="http://www.w3.org/2000/svg">
<g clip-path="url(#clip0_1136_29)">
<rect x="0.5" y="10" width="14" height="14" fill="#7595FD"/>
<path d="M19.491 2H9.51003C8.39903 2 7.50003 2.899 7.50003 4.01V9.647L2.79803 14.289C2.65715 14.4283 2.56083 14.6064 2.52131 14.8006C2.48179 14.9947 2.50085 15.1963 2.57606 15.3796C2.65128 15.5629 2.77926 15.7197 2.94376 15.8302C3.10827 15.9407 3.30188 15.9998 3.50003 16V21C3.50003 21.2652 3.60539 21.5196 3.79292 21.7071C3.98046 21.8946 4.23481 22 4.50003 22H20.5C20.7652 22 21.0196 21.8946 21.2071 21.7071C21.3947 21.5196 21.5 21.2652 21.5 21V4.009C21.5 2.899 20.602 2 19.491 2ZM11.422 15.111V20H5.50003V14.432L8.48703 11.483L11.422 14.486V15.111V15.111ZM13.5 9H11.5V7H13.5V9ZM17.5 17H15.5V15H17.5V17ZM17.5 13H15.5V11H17.5V13ZM17.5 9H15.5V7H17.5V9Z" fill="#292E3D"/>
<path d="M7.5 15H9.5V17H7.5V15Z" fill="#14171F"/>
</g>
<defs>
<clipPath id="clip0_1136_29">
<rect width="40" height="40" fill="white" transform="translate(0.5)"/>
</clipPath>
</defs>
</svg>
